<svg width="168" height="64" viewBox="0 0 168 64" fill="none" xmlns="http://www.w3.org/2000/svg">
<rect x="0.33252" width="167.333" height="64" rx="32" fill="#F3F3FF"/>
<path d="M41.5326 39.8582C39.1993 38.9915 36.7993 38.8582 34.5993 39.4582C33.0659 39.8582 31.5993 40.6582 30.2659 41.6582L29.3326 42.4582L29.0659 42.7249L29.6659 43.2582C29.7326 43.2582 29.7326 43.3249 29.7993 43.3915C29.9326 43.5249 30.0659 43.5915 30.2659 43.7249L30.6659 43.9915L31.0659 43.6582C31.1326 43.5915 31.2659 43.4582 31.3993 43.3915C32.5993 42.3915 33.9326 41.7249 35.3326 41.3915C37.1326 40.9249 39.0659 40.9915 40.9992 41.7249C42.5992 42.3249 45.8659 43.0582 49.7993 41.3915L49.9326 41.3249L50.1326 41.1249C50.1326 41.0582 50.1993 41.0582 50.2659 40.9915C50.5993 40.5915 50.9326 40.1915 51.1993 39.7249L52.5326 37.6582L50.3993 38.8582C47.2659 40.5915 44.3993 40.9249 41.5326 39.8582Z" fill="#748297"/>
<path d="M32.3992 32.6584C34.1992 32.1917 36.1326 32.2584 38.0659 32.9917C40.1992 33.7917 45.6659 34.9251 51.7992 29.3917L52.7992 28.3917L52.8659 28.3251L53.1326 28.0584L52.9992 27.7251C52.9326 27.4584 52.7992 27.1251 52.6659 26.7917L52.3326 25.8584L51.6659 26.5251C51.5992 26.6584 51.4659 26.7251 51.3326 26.8584C48.3992 29.8584 43.8659 32.9251 38.6659 31.0584C36.3326 30.1917 33.9326 30.0584 31.7326 30.6584C29.5992 31.2584 27.7326 32.3917 25.9992 33.9917V33.9251L24.9992 34.9917C24.9992 35.0584 24.9326 35.0584 24.8659 35.1251L24.6659 35.3251L24.7326 35.5917C24.7992 35.9251 24.9326 36.2584 24.9992 36.5917L25.3992 37.6584L26.0659 36.7917C26.1326 36.6584 26.2659 36.5917 26.3326 36.4584C27.7326 35.1917 29.6659 33.3917 32.3992 32.6584Z" fill="#748297"/>
<path d="M25.9325 31.4583C27.4659 29.8583 29.1992 28.8582 31.0659 28.3249C32.8659 27.8582 34.7992 27.9249 36.7325 28.6582C42.7325 30.8582 47.9325 27.2582 50.1992 25.3249L51.0659 24.4583L51.3992 24.1916L51.1325 23.7916C50.9325 23.5916 50.7992 23.3249 50.5992 23.0582L50.1992 22.5249L49.7325 22.9916C49.6659 23.0582 49.5325 23.1916 49.4659 23.2582C46.6659 25.9249 42.3325 28.6583 37.3992 26.7916C35.0659 25.9249 32.6659 25.7916 30.4659 26.3916C29.0659 26.7916 27.7325 27.4582 26.3992 28.3249L24.9992 29.4583C24.8659 29.5916 24.7992 29.6583 24.6659 29.7916L24.5325 29.9249V30.1249C24.4659 30.5916 24.4659 31.0583 24.3992 31.4583L24.3325 33.1249L25.4659 31.9249C25.5992 31.7916 25.7325 31.5916 25.9325 31.4583Z" fill="#748297"/>
<path d="M43.4659 44.3915L43.3326 44.7915L43.4659 44.3915C43.2659 44.3249 43.1326 44.2582 42.9326 44.1915C40.5992 43.3248 38.1992 43.1915 35.9992 43.7915C35.5326 43.9249 35.0659 44.0582 34.5992 44.2582L32.9992 44.9915L32.5992 45.1915L33.9326 45.6582C34.3326 45.7915 34.7326 45.9249 35.1326 46.0582L35.3326 46.1249L35.5326 46.0582C35.7326 45.9915 35.9326 45.8582 36.1326 45.8582C36.2659 45.8582 36.3992 45.7915 36.5326 45.7249C38.1326 45.3249 39.8659 45.3248 41.7326 45.9248C41.9326 45.9915 42.0659 46.0582 42.2659 46.1249L42.5992 46.2582L42.7992 46.1915C43.2659 46.0582 43.7992 45.9249 44.1992 45.7249L46.0659 45.0582L44.1326 44.5915C43.9326 44.5248 43.6659 44.4582 43.4659 44.3915Z" fill="#748297"/>
<path d="M53.6659 30.5913L52.6659 31.5913C52.5326 31.7246 52.3993 31.858 52.2659 31.9913C49.5326 34.5913 45.1326 37.3913 40.1993 35.5246C37.8659 34.658 35.4659 34.5247 33.2659 35.1247C31.1993 35.7247 29.3326 36.7913 27.6659 38.3913L26.7993 39.3246L26.5326 39.658L26.7993 40.058C26.9993 40.3246 27.1326 40.5247 27.2659 40.7913L27.6659 41.3913L28.1326 40.7913C28.1993 40.7247 28.3326 40.5913 28.3993 40.5246C29.9993 38.7913 31.7326 37.7246 33.7326 37.1913C35.5326 36.7246 37.4659 36.7913 39.3993 37.5246C41.0659 38.1246 42.7993 38.3247 44.5326 38.1247C47.5993 37.7913 50.6659 36.058 52.9326 34.1247C53.0659 33.9913 53.1993 33.9247 53.3326 33.7913L53.5326 33.5913V33.3913C53.5326 32.9913 53.5993 32.5247 53.5993 32.1247L53.6659 30.5913Z" fill="#748297"/>
<path d="M28.3326 24.4584L28.1326 24.0584L28.3326 24.4584C28.7326 24.2584 29.1993 24.1251 29.5993 23.9918C31.3993 23.5251 33.3326 23.5918 35.266 24.3251C36.5326 24.7918 37.7993 24.9918 39.1993 24.9918C41.9993 24.9918 44.7993 23.9918 47.3993 22.0584L48.3993 21.2584L48.7326 20.9918L48.1326 20.5251C47.9326 20.3251 47.6659 20.1251 47.3993 19.9918L46.9993 19.7251L46.6659 19.9918C46.5326 20.0584 46.4659 20.1918 46.3326 20.2584C42.7993 22.9251 39.266 23.6584 35.9326 22.3918C33.5326 21.5251 31.1326 21.3251 28.7326 22.0584C28.5326 22.1251 28.3326 22.1918 28.0659 22.2584L27.9326 22.3251L27.7326 22.5251C27.7326 22.5918 27.666 22.5918 27.5993 22.6584C27.3326 23.0584 26.9993 23.3918 26.7326 23.7918L25.4659 25.7251L27.5326 24.6584C27.8659 24.6584 28.1326 24.5251 28.3326 24.4584Z" fill="#748297"/>
<path d="M33.7992 19.9248L33.9992 19.9915C34.8659 20.3248 36.1992 20.6582 37.8659 20.6582C39.5992 20.6582 41.2659 20.2582 42.9326 19.5915L44.9992 18.5915L43.5992 18.1248C43.1992 17.9915 42.7992 17.8582 42.3326 17.7915H42.1326L41.9326 17.8582C41.7326 17.9248 41.5326 18.0582 41.3326 18.1248C39.3326 18.8582 37.3326 18.9915 35.3992 18.4582C35.1992 18.3915 34.9992 18.3248 34.7992 18.2582L34.5992 18.1915L34.3992 18.2582C33.9992 18.3915 33.5992 18.5248 33.1992 18.7248L31.6659 19.3915L33.2659 19.8582C33.3992 19.7915 33.5992 19.8582 33.7992 19.9248Z" fill="#748297"/>
<path d="M65.1857 38.6062H62.11L66.7965 25.0305H70.4954L75.1753 38.6062H72.0996L68.699 28.1327H68.5929L65.1857 38.6062ZM64.9935 33.27H72.2587V35.5106H64.9935V33.27Z" fill="#748297"/>
<path d="M79.5802 25.0305V38.6062H76.7563V25.0305H79.5802Z" fill="#748297"/>
<path d="M87.2579 28.4244V30.5456H81.1263V28.4244H87.2579ZM82.5184 25.985H85.3422V35.4774C85.3422 35.7382 85.382 35.9414 85.4615 36.0873C85.5411 36.2287 85.6516 36.3281 85.793 36.3856C85.9388 36.443 86.1068 36.4717 86.2968 36.4717C86.4294 36.4717 86.5619 36.4607 86.6945 36.4386C86.8271 36.4121 86.9287 36.3922 86.9994 36.3789L87.4436 38.4803C87.3021 38.5245 87.1033 38.5753 86.847 38.6327C86.5907 38.6946 86.2791 38.7322 85.9123 38.7454C85.2318 38.7719 84.6352 38.6813 84.1225 38.4736C83.6143 38.2659 83.2188 37.9433 82.936 37.5058C82.6532 37.0683 82.514 36.5159 82.5184 35.8486V25.985Z" fill="#748297"/>
<path d="M92.8178 37.8704V28.484H95.191V37.8704H92.8178ZM89.3112 34.3638V31.9907H98.6976V34.3638H89.3112Z" fill="#748297"/>
<path d="M108.893 28.9348C108.84 28.4001 108.612 27.9847 108.21 27.6886C107.808 27.3925 107.262 27.2445 106.573 27.2445C106.104 27.2445 105.709 27.3108 105.386 27.4433C105.063 27.5715 104.816 27.7505 104.644 27.9803C104.476 28.2101 104.392 28.4708 104.392 28.7625C104.383 29.0055 104.434 29.2176 104.544 29.3988C104.659 29.58 104.816 29.7369 105.015 29.8695C105.214 29.9976 105.443 30.1103 105.704 30.2075C105.965 30.3003 106.243 30.3799 106.539 30.4462L107.759 30.7378C108.351 30.8704 108.895 31.0472 109.39 31.2681C109.885 31.4891 110.313 31.7609 110.676 32.0835C111.038 32.4061 111.319 32.7861 111.518 33.2236C111.721 33.6611 111.825 34.1627 111.829 34.7284C111.825 35.5592 111.613 36.2795 111.193 36.8894C110.777 37.4948 110.176 37.9654 109.39 38.3013C108.608 38.6327 107.664 38.7984 106.559 38.7984C105.463 38.7984 104.509 38.6305 103.696 38.2947C102.887 37.9588 102.255 37.4616 101.8 36.8032C101.349 36.1403 101.113 35.3205 101.091 34.3439H103.868C103.899 34.7991 104.029 35.1791 104.259 35.484C104.493 35.7846 104.805 36.0121 105.194 36.1668C105.587 36.3171 106.031 36.3922 106.526 36.3922C107.012 36.3922 107.434 36.3215 107.792 36.1801C108.155 36.0387 108.435 35.842 108.634 35.5901C108.833 35.3382 108.932 35.0488 108.932 34.7217C108.932 34.4168 108.842 34.1605 108.661 33.9528C108.484 33.7451 108.223 33.5683 107.878 33.4225C107.538 33.2767 107.121 33.1441 106.626 33.0248L105.147 32.6536C104.003 32.3751 103.099 31.9399 102.436 31.3477C101.773 30.7555 101.444 29.9578 101.449 28.9547C101.444 28.1327 101.663 27.4146 102.105 26.8003C102.551 26.1861 103.163 25.7066 103.941 25.3619C104.719 25.0172 105.603 24.8448 106.592 24.8448C107.6 24.8448 108.479 25.0172 109.231 25.3619C109.986 25.7066 110.574 26.1861 110.994 26.8003C111.414 27.4146 111.63 28.1261 111.644 28.9348H108.893Z" fill="#748297"/>
<path d="M116.531 32.7198V38.6062H113.707V25.0305H116.451V30.2208H116.57C116.8 29.6198 117.171 29.1491 117.684 28.8089C118.197 28.4642 118.84 28.2918 119.613 28.2918C120.32 28.2918 120.937 28.4465 121.463 28.7558C121.993 29.0608 122.404 29.5005 122.695 30.075C122.992 30.645 123.137 31.3278 123.133 32.1233V38.6062H120.309V32.627C120.314 31.9995 120.154 31.5112 119.832 31.1621C119.514 30.813 119.067 30.6384 118.493 30.6384C118.108 30.6384 117.768 30.7202 117.472 30.8837C117.18 31.0472 116.951 31.2858 116.783 31.5996C116.619 31.9089 116.535 32.2823 116.531 32.7198Z" fill="#748297"/>
<path d="M125.355 38.6062V28.4244H128.179V38.6062H125.355ZM126.774 27.1119C126.354 27.1119 125.994 26.9727 125.693 26.6943C125.397 26.4114 125.249 26.0734 125.249 25.6801C125.249 25.2912 125.397 24.9575 125.693 24.6791C125.994 24.3963 126.354 24.2549 126.774 24.2549C127.194 24.2549 127.552 24.3963 127.848 24.6791C128.148 24.9575 128.298 25.2912 128.298 25.6801C128.298 26.0734 128.148 26.4114 127.848 26.6943C127.552 26.9727 127.194 27.1119 126.774 27.1119Z" fill="#748297"/>
<path d="M136.926 28.4244V30.5456H129.632V28.4244H136.926ZM131.071 38.6062V27.6886C131.071 26.9506 131.215 26.3385 131.502 25.8524C131.793 25.3663 132.191 25.0017 132.695 24.7587C133.199 24.5156 133.771 24.3941 134.412 24.3941C134.845 24.3941 135.24 24.4272 135.598 24.4935C135.961 24.5598 136.23 24.6195 136.407 24.6725L135.903 26.7937C135.793 26.7584 135.656 26.7252 135.492 26.6943C135.333 26.6633 135.17 26.6479 135.002 26.6479C134.586 26.6479 134.297 26.7451 134.133 26.9395C133.97 27.1296 133.888 27.3969 133.888 27.7416V38.6062H131.071Z" fill="#748297"/>
<path d="M143.057 28.4244V30.5456H136.926V28.4244H143.057ZM138.318 25.985H141.142V35.4774C141.142 35.7382 141.181 35.9414 141.261 36.0873C141.341 36.2287 141.451 36.3281 141.592 36.3856C141.738 36.443 141.906 36.4717 142.096 36.4717C142.229 36.4717 142.361 36.4607 142.494 36.4386C142.627 36.4121 142.728 36.3922 142.799 36.3789L143.243 38.4803C143.102 38.5245 142.903 38.5753 142.646 38.6327C142.39 38.6946 142.079 38.7322 141.712 38.7454C141.031 38.7719 140.435 38.6813 139.922 38.4736C139.414 38.2659 139.018 37.9433 138.735 37.5058C138.453 37.0683 138.313 36.5159 138.318 35.8486V25.985Z" fill="#748297"/>
</svg>
