<svg width="162" height="64" viewBox="0 0 162 64" fill="none" xmlns="http://www.w3.org/2000/svg">
<rect x="-0.000732422" width="161.333" height="64" rx="32" fill="#F3F3FF"/>
<path fill-rule="evenodd" clip-rule="evenodd" d="M38.6659 46.6668C46.7661 46.6668 53.3326 40.1003 53.3326 32.0002C53.3326 23.9 46.7661 17.3335 38.6659 17.3335C30.5657 17.3335 23.9993 23.9 23.9993 32.0002C23.9993 40.1003 30.5657 46.6668 38.6659 46.6668ZM43.2414 24.1658C43.4641 23.3747 42.6964 22.9069 41.9953 23.4065L32.2076 30.3792C31.4472 30.9209 31.5668 32.0002 32.3872 32.0002H34.9646V31.9802H39.9878L35.8948 33.4244L34.0905 39.8345C33.8677 40.6256 34.6354 41.0934 35.3366 40.5939L45.1243 33.6212C45.8847 33.0795 45.765 32.0002 44.9447 32.0002H41.0361L43.2414 24.1658Z" fill="#748297"/>
<path d="M60.9193 38.6062V36.2862H62.7593V26.9262H60.9193V24.6062H68.1193C68.9726 24.6062 69.7126 24.7528 70.3393 25.0462C70.9793 25.3262 71.4726 25.7328 71.8193 26.2662C72.1793 26.7862 72.3593 27.4128 72.3593 28.1462V28.3462C72.3593 28.9862 72.2393 29.5128 71.9993 29.9262C71.7593 30.3262 71.4726 30.6395 71.1393 30.8662C70.8193 31.0795 70.5126 31.2328 70.2193 31.3262V31.6862C70.5126 31.7662 70.8326 31.9195 71.1793 32.1462C71.526 32.3595 71.8193 32.6728 72.0593 33.0862C72.3126 33.4995 72.4393 34.0395 72.4393 34.7062V34.9062C72.4393 35.6795 72.2593 36.3462 71.8993 36.9062C71.5393 37.4528 71.0393 37.8728 70.3993 38.1662C69.7726 38.4595 69.0393 38.6062 68.1993 38.6062H60.9193ZM65.3993 36.2062H67.8793C68.4526 36.2062 68.9126 36.0662 69.2593 35.7862C69.6193 35.5062 69.7993 35.1062 69.7993 34.5862V34.3862C69.7993 33.8662 69.626 33.4662 69.2793 33.1862C68.9326 32.9062 68.466 32.7662 67.8793 32.7662H65.3993V36.2062ZM65.3993 30.3662H67.8393C68.386 30.3662 68.8326 30.2262 69.1793 29.9462C69.5393 29.6662 69.7193 29.2795 69.7193 28.7862V28.5862C69.7193 28.0795 69.546 27.6928 69.1993 27.4262C68.8526 27.1462 68.3993 27.0062 67.8393 27.0062H65.3993V30.3662Z" fill="#748297"/>
<path d="M78.4006 38.8862C77.4139 38.8862 76.5272 38.6862 75.7406 38.2862C74.9539 37.8862 74.3339 37.3062 73.8806 36.5462C73.4272 35.7862 73.2006 34.8728 73.2006 33.8062V33.4862C73.2006 32.4195 73.4272 31.5062 73.8806 30.7462C74.3339 29.9862 74.9539 29.4062 75.7406 29.0062C76.5272 28.6062 77.4139 28.4062 78.4006 28.4062C79.3872 28.4062 80.2739 28.6062 81.0606 29.0062C81.8472 29.4062 82.4672 29.9862 82.9206 30.7462C83.3739 31.5062 83.6006 32.4195 83.6006 33.4862V33.8062C83.6006 34.8728 83.3739 35.7862 82.9206 36.5462C82.4672 37.3062 81.8472 37.8862 81.0606 38.2862C80.2739 38.6862 79.3872 38.8862 78.4006 38.8862ZM78.4006 36.6462C79.1739 36.6462 79.8139 36.3995 80.3206 35.9062C80.8272 35.3995 81.0806 34.6795 81.0806 33.7462V33.5462C81.0806 32.6128 80.8272 31.8995 80.3206 31.4062C79.8272 30.8995 79.1872 30.6462 78.4006 30.6462C77.6272 30.6462 76.9872 30.8995 76.4806 31.4062C75.9739 31.8995 75.7206 32.6128 75.7206 33.5462V33.7462C75.7206 34.6795 75.9739 35.3995 76.4806 35.9062C76.9872 36.3995 77.6272 36.6462 78.4006 36.6462Z" fill="#748297"/>
<path d="M84.9267 38.6062V24.6062H87.4467V38.6062H84.9267Z" fill="#748297"/>
<path d="M93.0392 38.6062C92.3858 38.6062 91.8525 38.4062 91.4392 38.0062C91.0392 37.5928 90.8392 37.0462 90.8392 36.3662V30.7662H88.3592V28.6862H90.8392V25.6062H93.3591V28.6862H96.0792V30.7662H93.3591V35.9262C93.3591 36.3262 93.5458 36.5262 93.9192 36.5262H95.8392V38.6062H93.0392Z" fill="#748297"/>
<path d="M101.48 38.8862C100.187 38.8862 99.1269 38.6062 98.3002 38.0462C97.4736 37.4862 96.9736 36.6862 96.8002 35.6462L99.1202 35.0462C99.2136 35.5128 99.3669 35.8795 99.5802 36.1462C99.8069 36.4128 100.08 36.6062 100.4 36.7262C100.734 36.8328 101.094 36.8862 101.48 36.8862C102.067 36.8862 102.5 36.7862 102.78 36.5862C103.06 36.3728 103.2 36.1128 103.2 35.8062C103.2 35.4995 103.067 35.2662 102.8 35.1062C102.534 34.9328 102.107 34.7928 101.52 34.6862L100.96 34.5862C100.267 34.4528 99.6336 34.2728 99.0602 34.0462C98.4869 33.8062 98.0269 33.4795 97.6802 33.0662C97.3336 32.6528 97.1602 32.1195 97.1602 31.4662C97.1602 30.4795 97.5202 29.7262 98.2402 29.2062C98.9602 28.6728 99.9069 28.4062 101.08 28.4062C102.187 28.4062 103.107 28.6528 103.84 29.1462C104.574 29.6395 105.054 30.2862 105.28 31.0862L102.94 31.8062C102.834 31.2995 102.614 30.9395 102.28 30.7262C101.96 30.5128 101.56 30.4062 101.08 30.4062C100.6 30.4062 100.234 30.4928 99.9802 30.6662C99.7269 30.8262 99.6002 31.0528 99.6002 31.3462C99.6002 31.6662 99.7336 31.9062 100 32.0662C100.267 32.2128 100.627 32.3262 101.08 32.4062L101.64 32.5062C102.387 32.6395 103.06 32.8195 103.66 33.0462C104.274 33.2595 104.754 33.5728 105.1 33.9862C105.46 34.3862 105.64 34.9328 105.64 35.6262C105.64 36.6662 105.26 37.4728 104.5 38.0462C103.754 38.6062 102.747 38.8862 101.48 38.8862Z" fill="#748297"/>
<path d="M106.849 38.6062V24.6062H109.369V29.9062H109.729C109.835 29.6928 110.002 29.4795 110.229 29.2662C110.455 29.0528 110.755 28.8795 111.129 28.7462C111.515 28.5995 112.002 28.5262 112.589 28.5262C113.362 28.5262 114.035 28.7062 114.609 29.0662C115.195 29.4128 115.649 29.8995 115.969 30.5262C116.289 31.1395 116.449 31.8595 116.449 32.6862V38.6062H113.929V32.8862C113.929 32.1395 113.742 31.5795 113.369 31.2062C113.009 30.8328 112.489 30.6462 111.809 30.6462C111.035 30.6462 110.435 30.9062 110.009 31.4262C109.582 31.9328 109.369 32.6462 109.369 33.5662V38.6062H106.849Z" fill="#748297"/>
<path d="M118.173 38.6062V28.6862H120.693V38.6062H118.173ZM119.433 27.5262C118.979 27.5262 118.593 27.3795 118.273 27.0862C117.966 26.7928 117.813 26.4062 117.813 25.9262C117.813 25.4462 117.966 25.0595 118.273 24.7662C118.593 24.4728 118.979 24.3262 119.433 24.3262C119.899 24.3262 120.286 24.4728 120.593 24.7662C120.899 25.0595 121.053 25.4462 121.053 25.9262C121.053 26.4062 120.899 26.7928 120.593 27.0862C120.286 27.3795 119.899 27.5262 119.433 27.5262Z" fill="#748297"/>
<path d="M124.125 38.6062V30.7662H121.605V28.6862H124.125V26.8462C124.125 26.1662 124.325 25.6262 124.725 25.2262C125.139 24.8128 125.672 24.6062 126.325 24.6062H128.925V26.6862H127.205C126.832 26.6862 126.645 26.8862 126.645 27.2862V28.6862H129.245V30.7662H126.645V38.6062H124.125Z" fill="#748297"/>
<path d="M133.801 38.6062C133.148 38.6062 132.614 38.4062 132.201 38.0062C131.801 37.5928 131.601 37.0462 131.601 36.3662V30.7662H129.121V28.6862H131.601V25.6062H134.121V28.6862H136.841V30.7662H134.121V35.9262C134.121 36.3262 134.308 36.5262 134.681 36.5262H136.601V38.6062H133.801Z" fill="#748297"/>
</svg>
