<svg width="175" height="64" viewBox="0 0 175 64" fill="none" xmlns="http://www.w3.org/2000/svg">
<rect x="0.33252" width="174" height="64" rx="32" fill="#F3F3FF"/>
<path d="M38.7192 18.6665C36.2925 18.6665 34.3325 20.6027 34.3325 22.9998C34.3325 25.3786 36.2925 27.3147 38.7005 27.3332C38.1032 27.3147 37.6365 26.8353 37.6365 26.2452C37.6365 25.6552 38.1219 25.1573 38.7379 25.1573C41.3512 25.1573 47.1565 25.1573 49.7139 25.1573C51.5245 25.1573 52.9992 23.7006 52.9992 21.9119C52.9992 20.1232 51.5245 18.6665 49.7139 18.6665L38.7192 18.6665Z" fill="#748297"/>
<path opacity="0.9" d="M33.3859 27.3335C30.9593 27.3335 28.9993 29.2697 28.9993 31.6668C28.9993 34.0456 30.9593 35.9817 33.3673 36.0002C32.7699 35.9817 32.3033 35.5023 32.3033 34.9122C32.3033 34.3221 32.7886 33.8243 33.4046 33.8243C36.0179 33.8243 41.8233 33.8243 44.3806 33.8243C46.1913 33.8243 47.6659 32.3675 47.6659 30.5789C47.6659 28.7902 46.1913 27.3335 44.3806 27.3335L33.3859 27.3335Z" fill="#748297"/>
<path opacity="0.8" d="M29.6991 36C27.0991 36 24.9991 38.0851 24.9991 40.6667C24.9991 43.2284 27.0991 45.3135 29.6791 45.3333C29.0391 45.3135 28.5391 44.7972 28.5391 44.1617C28.5391 43.5262 29.0592 42.9901 29.7192 42.9901C32.5191 42.9901 38.7392 42.9901 41.4792 42.9901C43.4191 42.9901 44.9991 41.4213 44.9991 39.4951C44.9991 37.5688 43.4191 36 41.4792 36L29.6991 36Z" fill="#748297"/>
<path d="M59.6525 38.6062V24.6062H68.6525V27.0062H62.2925V30.3462H68.0925V32.7462H62.2925V36.2062H68.7725V38.6062H59.6525Z" fill="#748297"/>
<path d="M69.8067 42.6062V28.6862H72.2867V29.8862H72.6467C72.8734 29.4995 73.2267 29.1595 73.7067 28.8662C74.1867 28.5595 74.8734 28.4062 75.7667 28.4062C76.5667 28.4062 77.3067 28.6062 77.9867 29.0062C78.6667 29.3928 79.2134 29.9662 79.6267 30.7262C80.04 31.4862 80.2467 32.4062 80.2467 33.4862V33.8062C80.2467 34.8862 80.04 35.8062 79.6267 36.5662C79.2134 37.3262 78.6667 37.9062 77.9867 38.3062C77.3067 38.6928 76.5667 38.8862 75.7667 38.8862C75.1667 38.8862 74.66 38.8128 74.2467 38.6662C73.8467 38.5328 73.52 38.3595 73.2667 38.1462C73.0267 37.9195 72.8334 37.6928 72.6867 37.4662H72.3267V42.6062H69.8067ZM75.0067 36.6862C75.7934 36.6862 76.44 36.4395 76.9467 35.9462C77.4667 35.4395 77.7267 34.7062 77.7267 33.7462V33.5462C77.7267 32.5862 77.4667 31.8595 76.9467 31.3662C76.4267 30.8595 75.78 30.6062 75.0067 30.6062C74.2334 30.6062 73.5867 30.8595 73.0667 31.3662C72.5467 31.8595 72.2867 32.5862 72.2867 33.5462V33.7462C72.2867 34.7062 72.5467 35.4395 73.0667 35.9462C73.5867 36.4395 74.2334 36.6862 75.0067 36.6862Z" fill="#748297"/>
<path d="M81.5606 38.6062V28.6862H84.0806V38.6062H81.5606ZM82.8206 27.5262C82.3673 27.5262 81.9806 27.3795 81.6606 27.0862C81.3539 26.7928 81.2006 26.4062 81.2006 25.9262C81.2006 25.4462 81.3539 25.0595 81.6606 24.7662C81.9806 24.4728 82.3673 24.3262 82.8206 24.3262C83.2873 24.3262 83.6739 24.4728 83.9806 24.7662C84.2873 25.0595 84.4406 25.4462 84.4406 25.9262C84.4406 26.4062 84.2873 26.7928 83.9806 27.0862C83.6739 27.3795 83.2873 27.5262 82.8206 27.5262Z" fill="#748297"/>
<path d="M90.5331 38.8862C89.5731 38.8862 88.6998 38.6862 87.9131 38.2862C87.1398 37.8862 86.5264 37.3062 86.0731 36.5462C85.6198 35.7862 85.3931 34.8662 85.3931 33.7862V33.5062C85.3931 32.4262 85.6198 31.5062 86.0731 30.7462C86.5264 29.9862 87.1398 29.4062 87.9131 29.0062C88.6998 28.6062 89.5731 28.4062 90.5331 28.4062C91.4798 28.4062 92.2931 28.5728 92.9731 28.9062C93.6531 29.2395 94.1998 29.6995 94.6131 30.2862C95.0398 30.8595 95.3198 31.5128 95.4531 32.2462L93.0131 32.7662C92.9598 32.3662 92.8398 32.0062 92.6531 31.6862C92.4664 31.3662 92.1998 31.1128 91.8531 30.9262C91.5198 30.7395 91.0998 30.6462 90.5931 30.6462C90.0864 30.6462 89.6264 30.7595 89.2131 30.9862C88.8131 31.1995 88.4931 31.5262 88.2531 31.9662C88.0264 32.3928 87.9131 32.9195 87.9131 33.5462V33.7462C87.9131 34.3728 88.0264 34.9062 88.2531 35.3462C88.4931 35.7728 88.8131 36.0995 89.2131 36.3262C89.6264 36.5395 90.0864 36.6462 90.5931 36.6462C91.3531 36.6462 91.9264 36.4528 92.3131 36.0662C92.7131 35.6662 92.9664 35.1462 93.0731 34.5062L95.5131 35.0862C95.3398 35.7928 95.0398 36.4395 94.6131 37.0262C94.1998 37.5995 93.6531 38.0528 92.9731 38.3862C92.2931 38.7195 91.4798 38.8862 90.5331 38.8862Z" fill="#748297"/>
<path d="M100.372 38.7662C99.5985 38.7662 98.9185 38.5928 98.3318 38.2462C97.7585 37.8862 97.3118 37.3928 96.9918 36.7662C96.6718 36.1395 96.5118 35.4195 96.5118 34.6062V28.6862H99.0318V34.4062C99.0318 35.1528 99.2118 35.7128 99.5718 36.0862C99.9452 36.4595 100.472 36.6462 101.152 36.6462C101.925 36.6462 102.525 36.3928 102.952 35.8862C103.379 35.3662 103.592 34.6462 103.592 33.7262V28.6862H106.112V38.6062H103.632V37.3062H103.272C103.112 37.6395 102.812 37.9662 102.372 38.2862C101.932 38.6062 101.265 38.7662 100.372 38.7662Z" fill="#748297"/>
<path d="M107.916 38.6062V28.6862H110.396V29.8062H110.756C110.903 29.4062 111.143 29.1128 111.476 28.9262C111.823 28.7395 112.223 28.6462 112.676 28.6462H113.876V30.8862H112.636C111.996 30.8862 111.469 31.0595 111.056 31.4062C110.643 31.7395 110.436 32.2595 110.436 32.9662V38.6062H107.916Z" fill="#748297"/>
<path d="M114.846 38.6062V28.6862H117.366V38.6062H114.846ZM116.106 27.5262C115.652 27.5262 115.266 27.3795 114.946 27.0862C114.639 26.7928 114.486 26.4062 114.486 25.9262C114.486 25.4462 114.639 25.0595 114.946 24.7662C115.266 24.4728 115.652 24.3262 116.106 24.3262C116.572 24.3262 116.959 24.4728 117.266 24.7662C117.572 25.0595 117.726 25.4462 117.726 25.9262C117.726 26.4062 117.572 26.7928 117.266 27.0862C116.959 27.3795 116.572 27.5262 116.106 27.5262Z" fill="#748297"/>
<path d="M123.878 38.8862C122.892 38.8862 122.005 38.6862 121.218 38.2862C120.432 37.8862 119.812 37.3062 119.358 36.5462C118.905 35.7862 118.678 34.8728 118.678 33.8062V33.4862C118.678 32.4195 118.905 31.5062 119.358 30.7462C119.812 29.9862 120.432 29.4062 121.218 29.0062C122.005 28.6062 122.892 28.4062 123.878 28.4062C124.865 28.4062 125.752 28.6062 126.538 29.0062C127.325 29.4062 127.945 29.9862 128.398 30.7462C128.852 31.5062 129.078 32.4195 129.078 33.4862V33.8062C129.078 34.8728 128.852 35.7862 128.398 36.5462C127.945 37.3062 127.325 37.8862 126.538 38.2862C125.752 38.6862 124.865 38.8862 123.878 38.8862ZM123.878 36.6462C124.652 36.6462 125.292 36.3995 125.798 35.9062C126.305 35.3995 126.558 34.6795 126.558 33.7462V33.5462C126.558 32.6128 126.305 31.8995 125.798 31.4062C125.305 30.8995 124.665 30.6462 123.878 30.6462C123.105 30.6462 122.465 30.8995 121.958 31.4062C121.452 31.8995 121.198 32.6128 121.198 33.5462V33.7462C121.198 34.6795 121.452 35.3995 121.958 35.9062C122.465 36.3995 123.105 36.6462 123.878 36.6462Z" fill="#748297"/>
<path d="M134.184 38.7662C133.411 38.7662 132.731 38.5928 132.144 38.2462C131.571 37.8862 131.124 37.3928 130.804 36.7662C130.484 36.1395 130.324 35.4195 130.324 34.6062V28.6862H132.844V34.4062C132.844 35.1528 133.024 35.7128 133.384 36.0862C133.758 36.4595 134.284 36.6462 134.964 36.6462C135.738 36.6462 136.338 36.3928 136.764 35.8862C137.191 35.3662 137.404 34.6462 137.404 33.7262V28.6862H139.924V38.6062H137.444V37.3062H137.084C136.924 37.6395 136.624 37.9662 136.184 38.2862C135.744 38.6062 135.078 38.7662 134.184 38.7662Z" fill="#748297"/>
<path d="M145.849 38.8862C144.555 38.8862 143.495 38.6062 142.669 38.0462C141.842 37.4862 141.342 36.6862 141.169 35.6462L143.489 35.0462C143.582 35.5128 143.735 35.8795 143.949 36.1462C144.175 36.4128 144.449 36.6062 144.769 36.7262C145.102 36.8328 145.462 36.8862 145.849 36.8862C146.435 36.8862 146.869 36.7862 147.149 36.5862C147.429 36.3728 147.569 36.1128 147.569 35.8062C147.569 35.4995 147.435 35.2662 147.169 35.1062C146.902 34.9328 146.475 34.7928 145.889 34.6862L145.329 34.5862C144.635 34.4528 144.002 34.2728 143.429 34.0462C142.855 33.8062 142.395 33.4795 142.049 33.0662C141.702 32.6528 141.529 32.1195 141.529 31.4662C141.529 30.4795 141.889 29.7262 142.609 29.2062C143.329 28.6728 144.275 28.4062 145.449 28.4062C146.555 28.4062 147.475 28.6528 148.209 29.1462C148.942 29.6395 149.422 30.2862 149.649 31.0862L147.309 31.8062C147.202 31.2995 146.982 30.9395 146.649 30.7262C146.329 30.5128 145.929 30.4062 145.449 30.4062C144.969 30.4062 144.602 30.4928 144.349 30.6662C144.095 30.8262 143.969 31.0528 143.969 31.3462C143.969 31.6662 144.102 31.9062 144.369 32.0662C144.635 32.2128 144.995 32.3262 145.449 32.4062L146.009 32.5062C146.755 32.6395 147.429 32.8195 148.029 33.0462C148.642 33.2595 149.122 33.5728 149.469 33.9862C149.829 34.3862 150.009 34.9328 150.009 35.6262C150.009 36.6662 149.629 37.4728 148.869 38.0462C148.122 38.6062 147.115 38.8862 145.849 38.8862Z" fill="#748297"/>
</svg>
