<svg width="148" height="64" viewBox="0 0 148 64" fill="none" xmlns="http://www.w3.org/2000/svg">
<rect x="-0.000732422" width="148" height="64" rx="32" fill="#F3F3FF"/>
<path opacity="0.8" d="M45.6626 19.1064C47.6363 22.9761 48.7492 27.3579 48.7492 31.9998C48.7492 36.6416 47.6362 41.0235 45.6626 44.8932C50.2314 42.4086 53.3326 37.5663 53.3326 31.9998C53.3326 26.4333 50.2315 21.591 45.6626 19.1064Z" fill="#748297"/>
<path d="M39.0675 18.7991C38.4042 17.8593 37.2741 17.3532 36.1407 17.5499C29.2438 18.7467 23.9993 24.7609 23.9993 31.9999C23.9993 39.239 29.2438 45.2531 36.1406 46.45C37.274 46.6467 38.4041 46.1406 39.0675 45.2008C41.7018 41.469 43.2493 36.9152 43.2493 31.9999C43.2493 27.0847 41.7018 22.5309 39.0675 18.7991Z" fill="#748297"/>
<path d="M67.0552 38.8299C69.6312 38.8299 71.6472 37.9153 72.8419 36.3846V31.5873H67.8952L67.8019 34.0139L69.7806 33.9206V35.4513C69.0526 36.0299 68.1566 36.3099 67.2979 36.3099C65.1512 36.3099 63.7886 34.6859 63.7886 32.0913C63.7886 29.4966 65.0579 27.8726 67.0926 27.8726C68.4366 27.8726 69.3699 28.6753 69.5006 29.9633H72.8419C72.6179 27.1259 70.3966 25.3526 67.0926 25.3526C63.1166 25.3526 60.6152 27.9473 60.6152 32.0913C60.6152 36.2353 63.0979 38.8299 67.0552 38.8299Z" fill="#748297"/>
<path d="M81.024 38.6059H83.8427V31.8299C83.8427 29.3846 82.032 28.0033 79.1947 28.0033C76.2827 28.0033 74.416 29.3473 74.2294 31.5313H77.0667C77.16 30.6166 77.9067 30.0566 79.064 30.0566C80.24 30.0566 80.9307 30.6539 80.9307 31.6433V32.3526H79.0267C76.2267 32.3526 74.528 33.5659 74.528 35.7126C74.528 37.5419 75.8534 38.8299 77.8694 38.8299C79.1574 38.8299 80.2587 38.4753 80.968 37.5793L81.024 38.6059ZM77.384 35.5259C77.384 34.7233 78 34.3873 78.9707 34.3873L80.9307 34.3686V35.1713C80.3707 36.0299 79.6054 36.5339 78.5974 36.5339C77.776 36.5339 77.384 36.0859 77.384 35.5259Z" fill="#748297"/>
<path d="M85.9838 38.6059H88.8958V24.7926H85.9838V38.6059Z" fill="#748297"/>
<path d="M91.124 38.6059H94.036V28.2273H91.124V38.6059ZM91.012 26.8459H94.1107V24.1206H91.012V26.8459Z" fill="#748297"/>
<path d="M96.2651 38.6059H99.1771V24.7926H96.2651V38.6059Z" fill="#748297"/>
<path d="M106.315 38.8299C109.227 38.8299 111.205 37.3553 111.448 34.9846H108.536C108.349 35.8619 107.509 36.4966 106.315 36.4966C104.784 36.4966 103.944 35.3579 103.851 33.8646H111.485C111.765 30.2619 109.824 28.0033 106.464 28.0033C103.067 28.0033 100.92 30.0939 100.92 33.4166C100.92 36.7393 102.992 38.8299 106.315 38.8299ZM104.075 31.8673C104.429 30.8033 105.195 30.2619 106.445 30.2619C107.603 30.2619 108.443 30.9153 108.517 31.8673H104.075Z" fill="#748297"/>
<path d="M118.071 38.8299C121.394 38.8299 123.391 36.7953 123.391 33.4166C123.391 30.0379 121.394 28.0033 118.071 28.0033C114.748 28.0033 112.732 30.0379 112.732 33.4166C112.732 36.7953 114.748 38.8299 118.071 38.8299ZM115.644 33.4166C115.644 31.4939 116.559 30.3553 118.071 30.3553C119.564 30.3553 120.479 31.4939 120.479 33.4166C120.479 35.3393 119.564 36.4779 118.071 36.4779C116.559 36.4779 115.644 35.3393 115.644 33.4166Z" fill="#748297"/>
</svg>
