<svg width="157" height="64" viewBox="0 0 157 64" fill="none" xmlns="http://www.w3.org/2000/svg">
<rect x="0.33252" width="156.667" height="64" rx="32" fill="#F3F3FF"/>
<path d="M44.1572 28.0002C44.1572 33.058 40.057 37.1581 34.9992 37.1581C29.9414 37.1581 25.8412 33.058 25.8412 28.0002C25.8412 22.9424 29.9414 18.8422 34.9992 18.8422C40.057 18.8422 44.1572 22.9424 44.1572 28.0002Z" stroke="#748297" stroke-width="3.01739"/>
<path d="M49.4904 35.9997C49.4904 41.0575 45.3902 45.1576 40.3324 45.1576C35.2746 45.1576 31.1745 41.0575 31.1745 35.9997C31.1745 30.9419 35.2746 26.8417 40.3324 26.8417C45.3902 26.8417 49.4904 30.9419 49.4904 35.9997Z" stroke="#748297" stroke-width="3.01739"/>
<path d="M58.9658 38.606H61.9858V24.606H58.9658V38.606Z" fill="#748297"/>
<path d="M63.3108 38.606H66.1108V33.086C66.1108 31.786 66.9708 30.846 68.1908 30.846C69.3508 30.846 70.1308 31.726 70.1308 32.946V38.606H72.9308V32.326C72.9308 30.006 71.4508 28.366 69.1708 28.366C67.7908 28.366 66.6708 28.946 66.1108 29.926V28.526H63.3108V38.606Z" fill="#748297"/>
<path d="M74.9585 25.546V28.526H73.0185V30.846H74.9585V34.946C74.9585 37.286 76.4585 38.606 78.7785 38.606H80.4385V36.266H79.1585C78.2585 36.266 77.7385 35.806 77.7385 34.826V30.846H80.4385V28.526H77.7385V25.546H74.9585Z" fill="#748297"/>
<path d="M87.5039 35.186C87.2839 36.046 86.5439 36.486 85.4239 36.486C84.0239 36.486 83.1239 35.606 82.9239 34.186H90.1639C90.1839 33.966 90.2039 33.666 90.2039 33.286C90.2039 30.986 88.7839 28.366 85.2239 28.366C81.8039 28.366 80.2439 30.986 80.2439 33.546C80.2439 36.086 82.0039 38.766 85.4239 38.766C87.9039 38.766 89.8239 37.366 90.2239 35.186H87.5039ZM85.2239 30.406C86.5639 30.406 87.3439 31.306 87.4239 32.426H82.9639C83.2039 31.026 83.9639 30.406 85.2239 30.406Z" fill="#748297"/>
<path d="M97.2005 30.846V28.526H96.0605C94.8405 28.526 94.0805 28.946 93.5405 30.206V28.526H90.7405V38.606H93.5405V33.706C93.5405 31.986 94.1605 30.846 95.5405 30.846H97.2005Z" fill="#748297"/>
<path d="M97.6544 38.606H100.434V24.146H97.6544V38.606Z" fill="#748297"/>
<path d="M106.431 38.766C109.531 38.766 111.751 36.566 111.751 33.566C111.751 30.566 109.531 28.366 106.431 28.366C103.331 28.366 101.111 30.566 101.111 33.566C101.111 36.566 103.331 38.766 106.431 38.766ZM106.431 36.366C104.931 36.366 103.911 35.226 103.911 33.566C103.911 31.886 104.931 30.746 106.431 30.746C107.931 30.746 108.951 31.886 108.951 33.566C108.951 35.226 107.931 36.366 106.431 36.366Z" fill="#748297"/>
<path d="M116.952 38.766C119.572 38.766 121.652 37.086 121.952 34.846H119.112C118.912 35.746 118.092 36.366 117.072 36.366C115.552 36.366 114.652 35.206 114.652 33.566C114.652 31.926 115.532 30.746 117.032 30.746C118.052 30.746 118.912 31.406 119.072 32.306H121.872C121.692 29.966 119.592 28.366 116.952 28.366C113.832 28.366 111.752 30.626 111.752 33.566C111.752 36.506 113.832 38.766 116.952 38.766Z" fill="#748297"/>
<path d="M129.306 38.606H132.666L128.326 32.486L132.346 28.526H128.826L125.326 31.966V24.146H122.526V38.606H125.326V35.446L126.446 34.346L129.306 38.606Z" fill="#748297"/>
</svg>
