<svg width="146" height="64" viewBox="0 0 146 64" fill="none" xmlns="http://www.w3.org/2000/svg">
<rect x="0.665894" width="145.333" height="64" rx="32" fill="#F3F3FF"/>
<path opacity="0.7" d="M33.5176 30.879C34.0657 28.8335 36.1683 26.7309 38.2139 26.1827L50.9665 22.7652C53.012 22.217 54.2259 23.4308 53.6777 25.4763L50.2601 38.229C49.7119 40.2745 47.6093 42.3771 45.5638 42.9253L32.8112 46.3428C30.7656 46.891 29.5518 45.6772 30.1 43.6317L33.5176 30.879Z" fill="#748297"/>
<path d="M28.4051 25.7662C28.9533 23.7207 31.0559 21.6181 33.1014 21.0699L45.8541 17.6524C47.8996 17.1042 49.1134 18.318 48.5653 20.3635L45.1477 33.1162C44.5995 35.1617 42.4969 37.2643 40.4514 37.8125L27.6987 41.23C25.6532 41.7782 24.4394 40.5644 24.9876 38.5189L28.4051 25.7662Z" fill="#748297"/>
<path d="M65.6819 36.1424H69.8632V38.6064H62.4899V25.5024H65.6819V36.1424Z" fill="#748297"/>
<path d="M70.3777 33.3798C70.3777 32.3096 70.5768 31.37 70.975 30.5611C71.3857 29.7522 71.9395 29.13 72.6364 28.6944C73.3333 28.2589 74.111 28.0411 74.9697 28.0411C75.7039 28.0411 76.3448 28.1904 76.8924 28.4891C77.4524 28.7878 77.8817 29.1798 78.1804 29.6651V28.1904H81.3724V38.6064H78.1804V37.1318C77.8693 37.6171 77.4337 38.0091 76.8737 38.3078C76.3261 38.6064 75.6853 38.7558 74.951 38.7558C74.1048 38.7558 73.3333 38.538 72.6364 38.1024C71.9395 37.6544 71.3857 37.026 70.975 36.2171C70.5768 35.3958 70.3777 34.45 70.3777 33.3798ZM78.1804 33.3984C78.1804 32.602 77.9564 31.9736 77.5084 31.5131C77.0728 31.0527 76.5377 30.8224 75.903 30.8224C75.2684 30.8224 74.727 31.0527 74.279 31.5131C73.8435 31.9611 73.6257 32.5833 73.6257 33.3798C73.6257 34.1762 73.8435 34.8109 74.279 35.2838C74.727 35.7442 75.2684 35.9744 75.903 35.9744C76.5377 35.9744 77.0728 35.7442 77.5084 35.2838C77.9564 34.8233 78.1804 34.1949 78.1804 33.3984Z" fill="#748297"/>
<path d="M93.9483 28.1904L87.415 43.5531H83.9803L86.3696 38.2518L82.1323 28.1904H85.6976L88.1056 34.7051L90.495 28.1904H93.9483Z" fill="#748297"/>
<path d="M104.548 33.2304C104.548 33.5291 104.529 33.8402 104.492 34.1638H97.2679C97.3177 34.8109 97.523 35.3087 97.8839 35.6571C98.2572 35.9931 98.7115 36.1611 99.2466 36.1611C100.043 36.1611 100.597 35.8251 100.908 35.1531H104.305C104.131 35.8376 103.814 36.4536 103.353 37.0011C102.905 37.5487 102.339 37.978 101.655 38.2891C100.97 38.6002 100.205 38.7558 99.3586 38.7558C98.3381 38.7558 97.4297 38.538 96.6332 38.1024C95.8368 37.6669 95.2146 37.0447 94.7666 36.2358C94.3186 35.4269 94.0946 34.4811 94.0946 33.3984C94.0946 32.3158 94.3124 31.37 94.7479 30.5611C95.1959 29.7522 95.8181 29.13 96.6146 28.6944C97.411 28.2589 98.3257 28.0411 99.3586 28.0411C100.367 28.0411 101.263 28.2527 102.047 28.6758C102.831 29.0989 103.44 29.7024 103.876 30.4864C104.324 31.2704 104.548 32.1851 104.548 33.2304ZM101.281 32.3904C101.281 31.8429 101.095 31.4073 100.721 31.0838C100.348 30.7602 99.8812 30.5984 99.3212 30.5984C98.7861 30.5984 98.3319 30.754 97.9586 31.0651C97.5977 31.3762 97.3737 31.818 97.2866 32.3904H101.281Z" fill="#748297"/>
<path d="M109.051 29.9264C109.424 29.354 109.891 28.906 110.451 28.5824C111.011 28.2464 111.633 28.0784 112.317 28.0784V31.4571H111.44C110.643 31.4571 110.046 31.6313 109.648 31.9798C109.25 32.3158 109.051 32.9131 109.051 33.7718V38.6064H105.859V28.1904H109.051V29.9264Z" fill="#748297"/>
<path d="M117.707 38.7558C116.798 38.7558 115.99 38.6002 115.28 38.2891C114.571 37.978 114.011 37.5549 113.6 37.0198C113.19 36.4722 112.959 35.8624 112.91 35.1904H116.064C116.102 35.5513 116.27 35.8438 116.568 36.0678C116.867 36.2918 117.234 36.4038 117.67 36.4038C118.068 36.4038 118.373 36.3291 118.584 36.1798C118.808 36.018 118.92 35.8127 118.92 35.5638C118.92 35.2651 118.765 35.0473 118.454 34.9104C118.142 34.7611 117.638 34.5993 116.942 34.4251C116.195 34.2509 115.573 34.0704 115.075 33.8838C114.577 33.6847 114.148 33.3798 113.787 32.9691C113.426 32.546 113.246 31.9798 113.246 31.2704C113.246 30.6731 113.407 30.1318 113.731 29.6464C114.067 29.1487 114.552 28.7567 115.187 28.4704C115.834 28.1842 116.599 28.0411 117.483 28.0411C118.79 28.0411 119.816 28.3647 120.563 29.0118C121.322 29.6589 121.758 30.5176 121.87 31.5878H118.92C118.87 31.2269 118.709 30.9407 118.435 30.7291C118.174 30.5176 117.825 30.4118 117.39 30.4118C117.016 30.4118 116.73 30.4864 116.531 30.6358C116.332 30.7727 116.232 30.9656 116.232 31.2144C116.232 31.5131 116.388 31.7371 116.699 31.8864C117.022 32.0358 117.52 32.1851 118.192 32.3344C118.964 32.5336 119.592 32.7327 120.078 32.9318C120.563 33.1184 120.986 33.4296 121.347 33.8651C121.72 34.2882 121.913 34.8607 121.926 35.5824C121.926 36.1922 121.751 36.7398 121.403 37.2251C121.067 37.698 120.575 38.0713 119.928 38.3451C119.294 38.6189 118.553 38.7558 117.707 38.7558Z" fill="#748297"/>
</svg>
