<svg width="161" height="64" viewBox="0 0 161 64" fill="none" xmlns="http://www.w3.org/2000/svg">
<rect x="-0.000732422" width="160.667" height="64" rx="32" fill="#F3F3FF"/>
<rect x="23.9993" y="28.7998" width="6.39999" height="6.39999" fill="#748297"/>
<rect x="43.1992" y="35.2002" width="6.4" height="6.39999" transform="rotate(180 43.1992 35.2002)" fill="#748297"/>
<path opacity="0.4" d="M30.3993 28.7999L36.7993 22.3999V28.7999L30.3993 35.1999V28.7999Z" fill="#748297"/>
<path opacity="0.6" d="M36.7992 35.2001L30.3992 41.6001L30.3992 35.2001L36.7992 28.8001L36.7992 35.2001Z" fill="#748297"/>
<path opacity="0.8" d="M23.9993 28.8L36.7992 16V22.4L30.3993 28.8H23.9993Z" fill="#748297"/>
<path opacity="0.8" d="M43.1992 35.2L30.3992 48L30.3992 41.6L36.7992 35.2L43.1992 35.2Z" fill="#748297"/>
<path d="M57.138 38.8532C56.13 38.8532 55.1531 38.7101 54.2073 38.4239C53.274 38.1376 52.5335 37.7581 51.986 37.2852L52.826 35.3999C53.3611 35.823 54.0144 36.1714 54.786 36.4452C55.57 36.7065 56.354 36.8372 57.138 36.8372C58.1086 36.8372 58.8304 36.6816 59.3033 36.3705C59.7886 36.0594 60.0313 35.6487 60.0313 35.1385C60.0313 34.7652 59.8944 34.4603 59.6206 34.2239C59.3593 33.975 59.0233 33.7821 58.6126 33.6452C58.202 33.5083 57.642 33.3527 56.9326 33.1785C55.9371 32.9421 55.1282 32.7056 54.506 32.4692C53.8962 32.2327 53.3673 31.8656 52.9193 31.3679C52.4837 30.8576 52.266 30.1732 52.266 29.3145C52.266 28.5927 52.4589 27.9394 52.8446 27.3545C53.2429 26.7572 53.834 26.2843 54.618 25.9359C55.4144 25.5874 56.3851 25.4132 57.53 25.4132C58.3264 25.4132 59.1104 25.5127 59.882 25.7119C60.6535 25.911 61.3193 26.1972 61.8793 26.5705L61.114 28.4559C60.5415 28.1199 59.9442 27.8647 59.322 27.6905C58.6997 27.5163 58.0962 27.4292 57.5113 27.4292C56.5531 27.4292 55.8375 27.591 55.3646 27.9145C54.9042 28.2381 54.674 28.6674 54.674 29.2025C54.674 29.5759 54.8046 29.8807 55.066 30.1172C55.3397 30.3536 55.682 30.5403 56.0926 30.6772C56.5033 30.8141 57.0633 30.9696 57.7726 31.1439C58.7433 31.3679 59.5397 31.6043 60.162 31.8532C60.7842 32.0896 61.3131 32.4567 61.7486 32.9545C62.1966 33.4523 62.4206 34.1243 62.4206 34.9705C62.4206 35.6923 62.2215 36.3456 61.8233 36.9305C61.4375 37.5154 60.8464 37.9821 60.05 38.3305C59.2535 38.679 58.2828 38.8532 57.138 38.8532Z" fill="#748297"/>
<path d="M64.6029 28.6985H66.9362V38.6665H64.6029V28.6985ZM65.7789 27.0559C65.3558 27.0559 65.0011 26.9252 64.7149 26.6639C64.4287 26.3901 64.2855 26.0541 64.2855 25.6559C64.2855 25.2576 64.4287 24.9279 64.7149 24.6665C65.0011 24.3927 65.3558 24.2559 65.7789 24.2559C66.202 24.2559 66.5566 24.3865 66.8429 24.6479C67.1291 24.8967 67.2722 25.2141 67.2722 25.5999C67.2722 26.0105 67.1291 26.359 66.8429 26.6452C66.5691 26.919 66.2144 27.0559 65.7789 27.0559Z" fill="#748297"/>
<path d="M73.0787 38.7972C72.2698 38.7972 71.4796 38.6914 70.708 38.4799C69.9365 38.2683 69.3205 38.0007 68.86 37.6772L69.756 35.9039C70.204 36.2025 70.7391 36.4452 71.3614 36.6319C71.996 36.8061 72.6183 36.8932 73.228 36.8932C74.6218 36.8932 75.3187 36.5261 75.3187 35.7919C75.3187 35.4434 75.1383 35.2007 74.7774 35.0639C74.4289 34.927 73.8627 34.7963 73.0787 34.6719C72.2574 34.5474 71.5854 34.4043 71.0627 34.2425C70.5525 34.0807 70.1045 33.8007 69.7187 33.4025C69.3454 32.9919 69.1587 32.4256 69.1587 31.7039C69.1587 30.7581 69.5507 30.0052 70.3347 29.4452C71.1311 28.8727 72.2014 28.5865 73.5454 28.5865C74.2298 28.5865 74.9143 28.6674 75.5987 28.8292C76.2831 28.9785 76.8431 29.1839 77.2787 29.4452L76.3827 31.2185C75.5365 30.7207 74.5845 30.4719 73.5267 30.4719C72.8423 30.4719 72.3196 30.5776 71.9587 30.7892C71.6103 30.9883 71.436 31.2559 71.436 31.5919C71.436 31.9652 71.6227 32.2327 71.996 32.3945C72.3818 32.5439 72.9729 32.687 73.7694 32.8239C74.5658 32.9483 75.2191 33.0914 75.7294 33.2532C76.2396 33.415 76.6751 33.6887 77.036 34.0745C77.4094 34.4603 77.596 35.0079 77.596 35.7172C77.596 36.6505 77.1916 37.3972 76.3827 37.9572C75.5738 38.5172 74.4725 38.7972 73.0787 38.7972Z" fill="#748297"/>
<path d="M88.7565 28.6985L84.0898 39.4692C83.6543 40.5519 83.1254 41.311 82.5032 41.7465C81.881 42.1945 81.1281 42.4185 80.2445 42.4185C79.7467 42.4185 79.2552 42.3376 78.7698 42.1759C78.2845 42.0141 77.8863 41.7901 77.5752 41.5039L78.5085 39.7865C78.7325 39.9981 78.9938 40.1661 79.2925 40.2905C79.6036 40.415 79.9147 40.4772 80.2258 40.4772C80.6365 40.4772 80.9725 40.3714 81.2338 40.1599C81.5076 39.9483 81.7565 39.5936 81.9805 39.0959L82.1485 38.7039L77.7992 28.6985H80.2258L83.3618 36.0719L86.5165 28.6985H88.7565Z" fill="#748297"/>
<path d="M95.7402 28.5865C96.7108 28.5865 97.5757 28.7981 98.3348 29.2212C99.1064 29.6443 99.7099 30.2416 100.146 31.0132C100.581 31.7847 100.799 32.6745 100.799 33.6825C100.799 34.6905 100.581 35.5865 100.146 36.3705C99.7099 37.1421 99.1064 37.7394 98.3348 38.1625C97.5757 38.5856 96.7108 38.7972 95.7402 38.7972C94.3962 38.7972 93.3322 38.3492 92.5482 37.4532V42.2879H90.2148V28.6985H92.4362V30.0052C92.8219 29.5323 93.2948 29.1776 93.8548 28.9412C94.4273 28.7047 95.0557 28.5865 95.7402 28.5865ZM95.4788 36.7999C96.3375 36.7999 97.0406 36.5136 97.5882 35.9412C98.1482 35.3687 98.4282 34.6159 98.4282 33.6825C98.4282 32.7492 98.1482 31.9963 97.5882 31.4239C97.0406 30.8514 96.3375 30.5652 95.4788 30.5652C94.9188 30.5652 94.4148 30.6959 93.9668 30.9572C93.5188 31.2061 93.1642 31.567 92.9028 32.0399C92.6415 32.5127 92.5108 33.0603 92.5108 33.6825C92.5108 34.3047 92.6415 34.8523 92.9028 35.3252C93.1642 35.7981 93.5188 36.1652 93.9668 36.4265C94.4148 36.6754 94.9188 36.7999 95.4788 36.7999Z" fill="#748297"/>
<path d="M108.668 28.5865C109.925 28.5865 110.933 28.9536 111.692 29.6879C112.451 30.4221 112.83 31.511 112.83 32.9545V38.6665H110.497V33.2532C110.497 32.3821 110.292 31.7287 109.881 31.2932C109.47 30.8452 108.885 30.6212 108.126 30.6212C107.268 30.6212 106.589 30.8825 106.092 31.4052C105.594 31.9154 105.345 32.6559 105.345 33.6265V38.6665H103.012V24.8159H105.345V29.8559C105.731 29.4452 106.204 29.1341 106.764 28.9225C107.336 28.6985 107.971 28.5865 108.668 28.5865Z" fill="#748297"/>
<path d="M125.441 28.6985V38.6665H123.22V37.3972C122.846 37.8452 122.38 38.1936 121.82 38.4425C121.26 38.679 120.656 38.7972 120.009 38.7972C118.677 38.7972 117.626 38.4301 116.854 37.6959C116.095 36.9492 115.716 35.8479 115.716 34.3919V28.6985H118.049V34.0745C118.049 34.9705 118.248 35.6425 118.646 36.0905C119.057 36.5261 119.636 36.7439 120.382 36.7439C121.216 36.7439 121.876 36.4887 122.361 35.9785C122.859 35.4559 123.108 34.7092 123.108 33.7385V28.6985H125.441Z" fill="#748297"/>
<path d="M131.576 38.7972C130.767 38.7972 129.977 38.6914 129.205 38.4799C128.434 38.2683 127.818 38.0007 127.357 37.6772L128.253 35.9039C128.701 36.2025 129.237 36.4452 129.859 36.6319C130.493 36.8061 131.116 36.8932 131.725 36.8932C133.119 36.8932 133.816 36.5261 133.816 35.7919C133.816 35.4434 133.636 35.2007 133.275 35.0639C132.926 34.927 132.36 34.7963 131.576 34.6719C130.755 34.5474 130.083 34.4043 129.56 34.2425C129.05 34.0807 128.602 33.8007 128.216 33.4025C127.843 32.9919 127.656 32.4256 127.656 31.7039C127.656 30.7581 128.048 30.0052 128.832 29.4452C129.629 28.8727 130.699 28.5865 132.043 28.5865C132.727 28.5865 133.412 28.6674 134.096 28.8292C134.781 28.9785 135.341 29.1839 135.776 29.4452L134.88 31.2185C134.034 30.7207 133.082 30.4719 132.024 30.4719C131.34 30.4719 130.817 30.5776 130.456 30.7892C130.108 30.9883 129.933 31.2559 129.933 31.5919C129.933 31.9652 130.12 32.2327 130.493 32.3945C130.879 32.5439 131.47 32.687 132.267 32.8239C133.063 32.9483 133.717 33.0914 134.227 33.2532C134.737 33.415 135.173 33.6887 135.533 34.0745C135.907 34.4603 136.093 35.0079 136.093 35.7172C136.093 36.6505 135.689 37.3972 134.88 37.9572C134.071 38.5172 132.97 38.7972 131.576 38.7972Z" fill="#748297"/>
</svg>
